<?xml version="1.0" encoding="utf-8"?>
<!-- Generator: Adobe Illustrator 18.0.0, SVG Export Plug-In . SVG Version: 6.00 Build 0)  -->
<!DOCTYPE svg PUBLIC "-//W3C//DTD SVG 1.1//EN" "http://www.w3.org/Graphics/SVG/1.1/DTD/svg11.dtd">
<svg xmlns="http://www.w3.org/2000/svg" xmlns:xlink="http://www.w3.org/1999/xlink" version="1.1" id="Слой_1" x="0px" y="0px" viewBox="110 0 432.7 1024" enable-background="new 110 0 432.7 1024" xml:space="preserve">
<path fill="#000000" stroke="" stroke-width="2" stroke-linecap="round" stroke-linejoin="round" stroke-miterlimit="10" d="  M541.8,360.8c0,0-13.6-40.8-35.2-69.6l-3.8-7.9c0,0,2.3-11,0-14.7l-7.2-3l1.1-18.5c0,0,0.4-6,10.6-16.3c0,0,19.9-17.3,7.1-23  c0,0-1.7-2.1-1.4-5c0,0-0.3-4.5-5.4-4c0,0,0.7-6.9-2.4-7.7c0,0-3.5,1.3-4.4-0.4c0,0,1.6-9.3-2.4-11.1l-12.8,1.5c0,0-2,0.7-2.2-5.5  c0,0,1.3-18.4-11.3-25.9c0,0-0.1-14.6-2-16.6c0,0-1.5-4.3-12-4.6c0,0-14.3-7.2-114.9-24.2c0,0-19.3-6.1-23.4-13.3c0,0-2.3-0.8-3,2.3  c0,0-11-17.4-20.4-25.3c0,0-1.3-3.8-3.2-7c0,0-2.6-7.4-4.6-8.4c0,0-5.6-2.7-3.7,10.5c0,0,2.1,7.6,5.1,10.6c0,0-1.5,5.3-10.6-4.5  c0,0-9.5-16.3-14.7-12.9c0,0-5.7,2.6,4.2,12.5c0,0,6,5.7,4.9,8.3c0,0-2.5-0.8-6-1.5c-44.3-40.8-89.8-68.6-89.8-68.6  c-11.6-4.7-23.6-2.3-23.6-2.3l5,19c-1.1,0-2.2,0-3.3,0.1c0,0-21.2,7.2-2.3,26.1c0,0,24.6,17.4,20,68.8c0,0-3.4,17.8-17.4,45.4  l2.6,3.8c0,0-7.9,44.2-17,77.9c0,0-17,57.5-17.8,63.1c0,0-19.3,40.8,5.7,64.6c0,0,85.8,78.6,137.6,105.1c0,0,6.4,3.6,6.9,7.6  c0,0,14.9,121.4,36.9,177.1c0,0,13.1,42.6,11.3,70.5c0,0-14.8,56.3,5.4,108.4c0,0,12.1,36.7,8.6,51.5c0,0-3.2,1.8-3.8,20.1  c0,0-1.2,23.7-4.1,28.4c0,0-11.3,19.5-6.5,29l0.6,21.3c0,0,2.9,1.2,6.8,2.2c0.2,5.6-1.1,14.1-10.4,14.1h-13.1v7.2  c0,0,112.9,11.5,142,5c0,0,9-4.7,12-10.7c0,0-6-5.3-10.1-11.6c0.3-0.1,0.9-5.4,0.9-5.4s0.1-15.6-15.6-18c0,0-40.1-12.4-50.1-39.1  c0,0-0.3-33.8-1.3-40.3l-3.1-3.7c0,0-3.6-19.4-4.2-95.3c0,0-1.5-43-1.5-51.3c0,0-0.5-10.6,1.3-14.4c0,0,5.2-8.7,2.2-39.3  c0,0,3.5-40.1,4.6-68c0,0,4.2-81.7-0.4-100.6c0,0,20.8-6.9,23.4-9.7c0,0,34.8-14.1,43.5-20.9c0,0,66.9-25.3,69.2-76.7  C519.2,416,547.9,396.7,541.8,360.8z M211.7,45c4,0.7,27.8,19.8,40.1,29.8c-1.8,0.6-3.1,1.8-3.4,3.5c0,0-2.6,4.5,4.2,4.9  c0,0,0.7,3.7,4.2,5.9c-1.2,1.3-2.5,2.4-3.6,3.2l-5.9-6l-9.8,8.7c0,0-15.1-21.2-23.8-36.7c0,0-2.7-3.4-7.3-8.1  C208.7,47.4,211.7,45,211.7,45z M167.6,24.6c-0.3-7.1,1.8-9.1,1.8-9.1c4,0,27.4,16,27.4,16c2.2,1.4,0.7,5.5-1.1,8.8  C187.7,33.6,177.8,27.1,167.6,24.6z M444.3,1000.4c2.3,4.7,4.2,11.2-1.7,12.7c0,0-28.9,4.7-29.6-9.6  C421.2,1004.3,431.8,1003.9,444.3,1000.4z M392.7,998.4c0,0,4.5,2.4,12.4,4.1c-1.7,5-5.5,10.5-14.7,10.1c0,0-51.4,3.6-52.6-16.4  c4.4,0.8,8.5,1.4,11.4,0.9l5.6-8.3v-6C354.7,982.9,379.6,987.8,392.7,998.4z M392.9,411.1c0,0-33.6-32.1-89.6-21.9  c0,0-20,6-42.3-8.3c0,0-67.3-43.5-81.7-48c0,0-1.1-4.5-4.2-4.5c0,0,2.3-4.2,0-5.3c0,0-0.8-14.7,4.9-23.1c0,0,20.4-25.3,17-68.4  c0,0,0.4-35.5,6.8-46.1l2.6-0.8c0,0,1.9-20,20.4-35.5c0,0,29.5-18.5,28-25.7l12.5-16.6l-3.9-4c1.4-1.5,2.7-2.6,4-3.5  c5.6,6.5,14.7,14,26.7,13.1l-2.8,3.8c0,0,11.6,2.2,17.2,3.7c0,0-4.9,10.2,1.5,13.1c0,0,3.4,4.7,8.3,1.7c0,0,0,5.3,6.4,7.2  c0,0,1.5,11.3,12.5,7.6c0,0,12.5-1.9,27.2,3.8c0,0,24.2,13.6,27.2,29.9l1.5,8.3c0,0-20.9,29.1-7.6,49.5c0,0-17.3,21.2-3,34.8  c0,0-15.5,25.7,10.6,38.2c0,0,0.4,19.3,8.3,24.2c0,0-0.4,23.8,9.5,22.3C411,360.4,416.3,400.9,392.9,411.1z"/>
</svg>
