<?xml version="1.0" standalone="no"?>
<svg xmlns="http://www.w3.org/2000/svg" height="1326pt" preserveAspectRatio="xMidYMid meet" viewBox="0 0 1361 1326" width="1361pt">
  <path d="m1013 13224c-28-18-159-94-290-168-470-263-621-375-692-513-39-78-23-143 53-210 25-22 70-51 100-64 52-23 54-25 59-71 7-53 21-82 77-153l40-50 93 3c110 4 173-13 312-88 147-78 221-100 360-107 165-7 177-13 447-225 115-91 200-134 288-149 74-13 89-24 136-97 34-53 78-82 123-82 32 0 68 41 87 99 19 61 52 101 84 101 11 0 114-50 228-112 692-372 1289-757 1758-1134 177-143 320-269 565-503 344-326 433-387 919-636 394-202 461-242 629-379l73-61-6-275c-7-301-3-337 48-425 35-59 69-83 206-148 123-58 167-89 199-141 20-31 20-34 4-85l-17-53 28-54c39-75 174-215 347-359l145-123 33-107c18-59 73-265 122-458 120-473 182-655 319-932 59-121 120-258 134-303 58-185 92-409 126-832 44-539 84-783 166-1010 38-109 57-140 149-264 98-132 124-181 200-386 32-85 108-263 170-396 173-369 215-498 215-658 0-77-6-97-93-337-39-106-57-209-57-332-1-126 41-570 55-585 7-7 34-19 61-26 65-16 83-45 61-98-22-52-51-67-171-88-58-11-120-27-137-35-29-15-67-80-55-93 8-7 598-21 951-21 484-1 1057 26 1250 59 222 38 371 112 435 215 19 31 20 36 6 69-11 27-28 42-73 65-92 46-92 44-37 157 35 72 49 113 52 155 7 99-11 113-198 154-152 33-277 73-362 116-102 51-468 338-605 474-108 108-123 126-137 175-20 70-36 211-36 320s-17 292-31 327c-6 15-16 31-22 35-7 4-62 8-123 8-93 0-113 3-127 18-35 38-98 304-237 1002-60 300-125 601-146 670-20 69-52 176-71 239-48 164-56 264-44 535 8 185 7 270-6 464-9 130-17 350-17 487 0 229 2 272 33 505 27 204 34 290 35 430 0 207-10 264-88 498-30 88-59 191-66 229-12 66-11 215 1 228 4 3 62 1 130-5 200-18 816-25 981-11 263 23 528 77 723 149 212 78 676 305 857 419 158 99 246 170 373 297 175 175 287 353 380 601 48 129 71 245 85 425 32 437 53 502 281 867 124 200 180 309 205 404 10 35 21 68 25 73 5 5 76 13 158 17 168 9 217 23 264 78 56 67 57 132 5 320-18 65-31 143-35 202-6 108-5 112 77 163 76 47 42 131-106 258-108 94-139 137-148 208-22 174-79 294-196 410-123 124-269 195-491 239-57 12-138 29-179 38-97 22-253 21-345-2-139-34-200-72-326-202-215-221-310-407-339-665-6-46-10-113-10-149v-66l-40-18c-103-47-164-180-177-391-5-93-4-105 16-137 33-54 99-91 251-142 153-51 177-64 164-87-14-24-101-93-153-121-74-41-185-67-281-67-145 0-260 42-351 127-44 41-49 50-49 88 0 24-11 73-25 109-14 37-25 75-25 85 0 35-71 86-146 106-137 36-192 78-338 255-166 203-235 257-354 281-70 13-194 7-254-12-37-12-38-14-38-59 0-79 47-156 169-278 80-80 112-119 126-155 10-26 15-50 12-53-3-4-55 23-114 58-127 77-214 111-269 106-37-3-39-5-35-33 9-78 64-127 205-186 91-38 109-50 176-118 52-53 103-120 165-220l90-145 90-35c164-66 292-173 397-332 60-91 111-186 106-198-3-7-256-142-438-233-165-82-407-191-494-221-83-29-102-31-216-32-150 0-166 7-330 135-156 123-355 209-643 279-360 88-701 121-1268 121-282 0-441 4-550 15-588 59-1189 214-1572 406-185 93-244 144-469 409-141 165-265 285-338 327-129 73-613 252-1415 523-655 222-621 207-695 287-34 36-114 145-178 242-184 277-244 331-474 430-144 62-202 97-257 155-43 44-78 47-146 10-59-31-85-28-104 11-23 49-18 80 22 124 46 51 47 81 6 115-44 38-99 34-166-10zm-4-316c27-24 50-48 50-54 2-29-39-46-126-53-136-11-181-40-353-222-164-172-205-199-307-199h-63v38c0 59 29 96 106 132 38 18 93 55 123 82 30 28 104 82 165 121 61 40 151 100 201 134 113 77 135 79 204 21zm8681-12328c284-53 437-109 530-196 46-43 108-130 99-138-6-5-503-64-594-71-169-12-343 26-414 90-31 29-34 35-21 50 11 13 30 16 99 15 47-1 92-2 99-1 8 1 12 20 12 59 0 31 7 94 17 140 15 76 18 83 37 78 12-2 73-14 136-26zm1015-224c29-12 35-20 35-44 0-17-8-40-19-53l-18-23-63 24c-35 13-85 24-112 24-26 0-48 3-48 7 0 62 138 101 225 65z" transform="matrix(.1 0 0 -.1 0 1326)" vector-effect="non-scaling-stroke" fill="#000000" stroke="none" stroke-width="2"/>
</svg>
