<?xml version="1.0" encoding="utf-8"?>
<!-- Generator: Adobe Illustrator 18.0.0, SVG Export Plug-In . SVG Version: 6.00 Build 0)  -->
<!DOCTYPE svg PUBLIC "-//W3C//DTD SVG 1.1//EN" "http://www.w3.org/Graphics/SVG/1.1/DTD/svg11.dtd">
<svg xmlns="http://www.w3.org/2000/svg" xmlns:xlink="http://www.w3.org/1999/xlink" version="1.1" id="Слой_2" x="0px" y="0px" viewBox="283 188 1020 1204" enable-background="new 283 188 1020 1204" xml:space="preserve">
<path fill="#000000" stroke="" stroke-width="2" stroke-miterlimit="10" d="M1283,451.9c-5-4.2-21.4-18.7-28.1-20.1  c-7.8-1.7-18.7,4.3-25.9,3.7c-7-0.5-11.2-6.7-15.7-11.2c-4.4-4.4-10.3-5.8-14.2-9.9c-5.2-5.6-2-11.4-8.8-16.3  c-8.3-5.9-24.7-9.4-27.2-20.9c-3-0.6-5.7-0.8-8.1-3c1-1.4,0.5-2.7,0.7-4.5c-7.8-0.7-13.8,1.1-21.2,3.3c-8.3,2.6-9.2-4.2-15.7-7.8  c-6.5-3.6-13.3,0.7-18.8-1c-3-0.8-4.4-4.9-7.1-5.8c-1.9-0.7-7-0.1-9.3,0.1c-9.3,0.8-14.5-7.6-14.5-7.6l-0.2-20.1c0,0,9.2-3,12.7-6.7  c5.6-5.9,5.4-7.4,4.2-14.7c-2.3-14.6-1.4-29.4-3-44.2c-1.3-12.7-7.5-28.8-13.9-39.8c-5.9-10.2-15.7-21.5-27.1-25.7  c-8-3-14.2-1.8-22-0.2c-4.6,1-19-6.1-51.6,20.6c-7.8,6.4-16.3,9.8-23.7,16.2c-13.8,12.2-14,42.2,5.6,48.5c0.7,7.4-0.1,14.9,1.2,22.1  c1.2,6.8,2.7,13.1,4.5,19.5c1.7,6.1,3.8,12,5.8,18.4c2,6.3,5.2,11.4,7.8,17.6c1.8,4.3,1.2,4.9,1.2,4.9s-8.1,4.4-10.1,5.2  c-5.8,2.6-10.6,4.6-16.1,8.1c-9.9,6.4-16.1,9.2-28.5,23.1c-0.6-3.8,1.3-7.6,1.7-11.1c0.5-4.4-0.1-9.2,0.4-13.6  c0.7,0.5,2.1,1.3,2.4,0.7c2.6-5.5,1.1-14.3,1.1-21.2c0-7.3,0.1-13.7-2-20.2c-0.5-0.1-1-0.2-1.5-0.4c-2-6.5-2.3-13.4-3.8-20.2  c-1.4-6.1-4.2-12.2-6.7-18.3c-4.9-11.7-15-18.3-26.6-23.2c-6.3-2.6-14.2-4-20.8-5.4c-7.3-1.3-12.1-5.7-19-7  c-12.7-2.3-28.7,5.4-31.8,17.4c-3,12,3,11.3-4.2,36.5c-3.3,11.5-1.9,24.5,2.4,36.2c-10.3,6.9,11.2,48,22.2,46.1  c0.5,3.9,4,9.8,5.2,13.3c2,5.8-2.6,3.6-3.1,9c-0.7,9-0.7,20.2-2.5,28.5c-2.1,1.9-10.8,8.7-12.8,10.8c-4.2,4.6-7,9.6-10.6,14.3  c-7.7,10.3-14.7,18.8-25.2,25.7c-6.1,4-12.2,3.1-18.3,8.6c-4.8,4.3-10.5,7.8-14.9,13c-4.3,5.1-6.1,11.1-9.5,16.4  c-3.3,5.2-7.7,10.7-11.4,15.7c-7.5,10.7,0.1,17.6,4.4,28.3c4.2,10.6,11.1,26.2,16.2,36.6c2.5,5.2,2.3,12.4,4.9,17.6  c2.3,4.6,3.6,12.6,7.8,15.9c4.4,3.4,11.7-0.4,16.9-1.2c3-0.5,6.4-0.1,9.3-0.8c2.7-0.7,5.5-3.4,8.2-3.6c-6.3,7.6-6.5,17.6-11.7,25.1  c-4.6,6.9-13,16.9-20.6,20.1c-4.8,2-10.1,0-14.6,3c-3.6,2.4-7.5,6.2-10.7,8.8c-7.3,5.9-50.8,46-54.1,49.6  c-10.5,11.1-19.3,22.4-31.5,31.5c-2.1,1.5-5,3.2-6.4,5.6c-3.2,5,0.4,2.7,1,6.9c0.8,5.8-8.6,6.9-5.1,14.4c5.5,11.4,22.2,17.2,32.8,20  c3.7,1,8.8,2.6,12.6,2.1c1.5,6.2-4.5,14-7.5,19.1c-3,5.1-63.2,99.3-77.8,124c-7.5,12.6-17,18.3-28.7,26.8  c-10.7,7.8-21.5,14.6-33.1,20.8c-12.6,6.9-25,15.5-35,25.9c-9,9.5-69.2,79.8-75.5,91.3c-6.3,11.7-15.5,21.4-26.6,29.6  c-6.8,5-9.9,8.6-18.4,9.3c-7.4,0.6-15.6-1.5-22.2,0.1c-11.4,3-23.2,11.8-29.6,22.2c-3,4.9-5.1,10-8.6,14.6  c-3.6,4.6-10.2,12.5-10.2,12.5s0.8,1.3,2,3.3c-1.2,1.3-2.7,2.3-4.8,2.4c-2.9,0.1-6.2-0.6-8.4-2.3c-2-1.5-3.7-5.8-4.2-5.2  c-1.3,1.4-6.4,3.1-5.8,5.4c0.4,1.3,69.3,104.8,74,110.4c19.4,22.8,26.6,19.4,33.9,19.4c2.1-1.5,4.9-9.2,7-15.7c0.4,0,0.6,0,1,0  c6.9-0.5,12.4-7.6,14.2-13.7c2-7.4-1.2-12.7-3-19.6c-1.9-7-3.1-13.9-3.7-21.4c-0.7-8.4-0.8-14,2.6-21.5c3-6.4,5.6-13.4,7.4-20.1  c1.9-7.1,3-14.4,5.9-21.1c3.2-7.4,21.8-26,25.5-31c4-5.2,9.8-9,14.9-13c1.5-1.2,5.5-3.1,5.8-5.2c0.7-4.4-2.6-7.7-2.6-7.7  s10-11.8,13.7-15.5c21.2-21.2,48.8-35,71.4-54.7c9.9-8.7,18.4-17.7,29.6-24.7c5.5-3.4,11.9-5.4,18.6-6.5c7.8-1.4,15.2-4.2,23-5.9  c14.3-3.4,20.2-13.9,29.6-25c9.9-11.7,21.3-21.3,32-31.9c19.5-19.6,65.5-60.5,77.5-78c5.9-8.7,11.5-15.1,17.1-24.3  c3.1,3.6,30.1,30.9,34.7,36.3c0,0-9.4,17-12.2,21.1c-3.8,5.5-8.3,10.8-13.8,14.9c-5.2,3.8-12.6,5.6-18.3,8.6  c-6.2,3.1-141.8,93.7-167.5,106.7c-15.8,8-30.1,19.3-45.6,28.3c-8.1,4.8-32.7,17.1-24.4,27.8c-8.3,3-15.5,8.2-23.5,11.4  c-0.5,1.7,1,6.7,3,12.5c-0.5,0.7-1,1.4-1.4,2c-2.5,3-4.5,6.3-8.7,6.2c-3.2-0.1-6.9-1.1-9.4-3.2c-2.3-1.9-3.8-7.1-4.4-6.4  c-1.5,1.7-7.4,3.3-6.9,5.9c0.4,1.7,72.1,128.3,77.1,135.1c20.6,28.2,28.9,24.6,37.1,25c1.9-1.3,4.5-6.8,6.8-12.7  c1.4-0.7,3-1.9,4.9-3.4c4.5-3.6,7.7-5.1,9.3-11.1c1.5-5.7,0.4-11.3-1-16.7c-1-3.8-1.9-7.7-2.7-11.9c9-9.5,20-15.7,30.2-23.4  c6.2-4.6,13.6-7.7,19.9-12.5c5.5-4,166-146.5,171.1-152.3c9.8-11.2,21.4-20.7,31.5-31.3c7.3-7.6,30.9-44.7,39.6-50.8  c2.4,7.4,3.1,12.4-1.9,19.1c-3.8,5.2-7.6,10.3-11.1,15.7c-7.3,11.2-14,22-20.5,33.3c-14,24.9-16.3,53.8-22.7,80.2  c-1.5,6.2-8.6,32.3-10.6,39.5c-8.9-1.2-6.9,10.7-7.3,15.9c-0.5,6.7-11.5,49.5-15.9,55.3c-3.4,4.5-7.8,8.2-10.7,13.2  c-3.2,5.8-3,12.4-3,19.4c0,7.1,0.6,14.3,1.9,21.3c1.2,6.7,0.1,14.6,2,21.2c1.2-0.1,4.4-0.1,8.4,0c0.7,2.3,1.9,4.6,2.4,6.3  c1.1,3.6,2.5,6.9,0.2,10.3c-1.8,2.6-4.5,5.1-7.5,5.9c-2.7,0.8-7.6-0.6-7.4,0.4c0.5,2-1.4,7.7,1,8.7c1.4,0.6,138.8,6.3,146.6,5.7  c32.9-2.5,34.6-11.2,39.4-17.7c0-4.4-11.3-18.9-15.2-24.1c4.2-1.7,6.5-3.7,6.3-5.7c-1-5.8-2.4-12-6.4-16.8  c-8.4-9.8-25.8-8.4-37.2-13.7c-13.6-6.2-20.2-18.2-28.1-30.3c-3.2-5-6.9-9.8-10.2-14.7c-3.4-5.2-4.8-13.7-6.2-19.6  c-1.5-6.4-2.4-16.8,0.2-23c2.3-5.5,7.5-10.1,9.2-15.9c0.5-1.8-1-2.1-0.2-3.9c0.6-1.5,64.9-131.8,73.1-143.3  c13.3-18.6,31.9-35.2,21.8-59.5c-4.2-10.1-19.9-40.4-22.2-45.4c-2-4.3-6.1-8.8-6.9-13.4c-0.5-0.1,16.2-25,19.6-30.3  c2.6,3.4,6.9,5.2,10,8.2c3.6,3.3,62.9,52.6,67.9,54.6c4.4,1.8,8.3,4.5,12.6,6.3c-5.1,3.4-7.8,14.3-6.2,19.3  c-6.9,0.2-5,13.8-5.5,18.7c-0.7,7.5-5,12.4-6.7,19.5c-3.2,13.2-54.5,178.3-58.4,207.3c-1,6.9-5.1,10.7-1,17s4.2,6.3,4.2,6.3  s1.1,26,1.5,33.3c0.5,6.8,2.6,14.6,2,21.2c5.9,0.5,11.3,0.5,16.5,0.1c0.5,1.2,1,2.3,1.2,3.2c1.1,3.6,2.5,6.9,0.2,10.3  c-1.8,2.6-4.5,5.1-7.5,5.9c-2.7,0.8-7.6-0.6-7.4,0.4c0.5,2-1.4,7.7,1,8.7c1.4,0.6,138.8,6.3,146.6,5.7c32.9-2.5,34.6-11.2,39.4-17.7  c0-3.7-7.7-14.2-12.6-20.7c2-3.1,0-4.4-0.8-7.8c-1.7-7.1-2.9-10.8-10.1-14.6c-8.1-4.3-18.1-10.8-26.9-13.2c0,0,7.1-19.4,8.1-25  c3.9-21.4,15.9-90.3,17.1-105.4c1.2-14.6-0.5-30.6,0.7-45.6c1.3-15.5,3.7-72.8,9-86.3c5.4-13.7,6.1-25.5,4.9-40.6  c-0.6-6.8,0-14.9-2.5-21.3c-2.5-6.4-5.8-13-9.3-18.7c-7.4-12.4-16.3-23.3-24.5-35c-15.3-21.9-70.9-81.1-79.7-91.5  c-3.9-4.6-28.4-34.5-28.4-34.5c0-4.6,14.9-46.7,15.8-50.9c2.1-9.2,2.4-19,4.5-27.8c2.1-8.6,19.5-53.8,26.2-67.3  c6.7-13.7,7-28.7,13-42.8c5.4-12.7,8.8-25.9,9.9-39.8c1.1-14,2.9-26.6,7.6-39.6c7.8-0.7,15.3-1.1,23-2.3c8.3-1.3,9.8,5.7,15.8,10.5  c5.5,4.2,13,3.4,18.3,7.6c5.4,4.3,4.4,12.7,5,19c4.6-0.1,38.3,13.8,42.6,15.2c5,1.7,4.8,1,8.4-1c5.9-3.1,11.3-6.3,17.2-8.8  c11.7-4.6,21.2-13.8,29.6-23.2c4.5-5,5.2-11.3,6.8-17.4c1.5-6.4,3.8-13.6,4.4-20.5C1297.5,474.1,1293.4,460.9,1283,451.9z   M365,1306.9c-6.5,1-11.4-3.2-15.6-7.6c-4.6-4.9-8.7-10.7-12.7-16.3c-4-5.6-17.6-27-15.8-34c0.2-1.1,0.7-2,1.2-2.9  c1.5,2.4,3,4.3,3.9,5.2c4.6,5,10-1.3,15.2-3.7c2.7-1.3,6.1-3.1,9-3.7c4.9-1.1,4.2-0.8,6.7,3.2c3.9,6.4,5.7,12.1,6.4,19.5  c1.3,13.9-0.4,26.4,5.4,39.1C367.4,1306.4,366.3,1306.8,365,1306.9z M394.6,1352c-3.3,8.4-28.1-25.8-27-32.1  c0.5-2.9,2.7-4.6,5.2-6.1c5.4,9,12.5,18.7,19.3,26.3c1.4,1.5,3.1,3.3,5,5C395.9,1348.2,394.9,1351,394.6,1352z M549.5,1259.7  c-4.9-5.9-9.2-13.2-13.4-20c-4.3-6.8-18.3-33.1-15.8-41.1c1-3.1,2.5-5.4,4.9-7.1c3,6.9,5.7,12.4,6.4,12.6c1.9,0.6,6.2-2.1,8.2-2.9  c5.6-1.9,11.2-3,17.6-2.4c0.5,6.3,3.4,12.4,5.5,18.4c2.3,6.7,2.9,12.4,3.9,19.5c1.5,10.8-1.1,22.2,1,32.8c-0.4,0-0.7,0.1-1.1,0.1  C559.3,1270.4,553.9,1265.1,549.5,1259.7z M568.9,1285c0.4-2,1.5-3.4,3-4.8c6.2,10.9,20.7,34.6,26.4,42.5c-0.4,0.8-0.6,1.5-0.8,2  C593.3,1334.5,567.4,1292.5,568.9,1285z M619.5,1283c-1.3-7.3-2.1-14.9-1.5-22.2C631.5,1257.3,623.7,1274.2,619.5,1283z   M968.9,1347.5c3.8,5.5,10.3,14.5,11.7,16.5c5.5,8.4-41.3,8.3-46.3,3.2c-2.5-2.5-2.4-6.2-2-9.6c0.2-1.7,1.1-3.4,1.5-5.4  C942.6,1351.9,957.2,1350.2,968.9,1347.5z M923.8,1352c-0.5,3.3-1.3,6.2-2.9,9.2c-3.3,6.5-10.3,8.2-16.9,9c-7.3,1-15.2,0.8-22.8,0.8  s-35.6-1.8-40.7-8c-2.5-3.1-3.2-6.3-3-10.6c0.1-1.2,0.2-2.4,0.4-3.6c9.5,0.4,18,0.7,18,0.7s1.3-17.8,2.7-23.1  c5,0.4,13.2,2.4,17.7,5.1c5,3.1,9.3,7.7,14.5,10.5C901.6,1347.6,912.1,1351,923.8,1352z M1180.8,1321.4c3.3,4.6,6.8,9.5,7.6,10.8  c5.5,8.4-41.3,8.3-46.3,3.2c-2.5-2.5-2.4-6.2-2-9.6c0-0.1,0-0.4,0.1-0.5C1156.4,1324.8,1172.8,1323.1,1180.8,1321.4z M1130.5,1325.7  c-0.5,1.3-1,2.6-1.5,3.8c-3.3,6.5-10.3,8.2-16.9,9c-7.3,1-15.2,0.8-22.8,0.8c-7.6,0-35.6-1.8-40.7-8c-2.5-3.1-3.2-6.3-3-10.6  c0.1-0.8,0.1-1.5,0.2-2.3c4.6-0.5,9.5-0.8,14.7-1c0.4-9,1.2-14.3,1.7-17.7c13.8,8.8,32.6,18.8,37.8,22.1  C1104.5,1324.9,1116.7,1325.8,1130.5,1325.7z"/>
</svg>
